<?xml version="1.0" encoding="UTF-8" standalone="no"?>
<svg xmlns="http://www.w3.org/2000/svg" fill="none" height="49" viewBox="0 0 33 27" width="60">
  
  <g clip-path="url(#clip0_241_16912)">
    
    <path d="M5.94336 18.5345C5.94336 23.2659 10.7505 26.1522 16.5646 26.1522C22.3786 26.1522 27.0709 23.2097 27.0709 18.2804C27.0709 13.351 22.3004 9.58252 16.5352 9.58252C12.1264 9.58252 5.94092 12.2855 5.94092 18.5345H5.94336Z" fill="#FFE100"/>
    
    <path d="M21.4331 11.066C23.2513 6.64738 26.7999 3.15994 28.7648 1.94043C29.1314 2.6125 29.9305 3.94198 29.1142 8.23348C28.0072 9.7658 25.551 12.3221 23.9772 13.3143C22.4057 14.3115 21.0152 12.0924 21.4331 11.066Z" fill="#FFE100"/>
    
    <path d="M32.7482 0.266269C33.1612 0.671957 32.0468 3.97122 29.0995 8.26027C29.4221 6.60086 29.6054 3.12075 28.7427 1.95745C29.8229 1.16562 32.3132 -0.163858 32.7482 0.266269Z" fill="#0E141B"/>
    
    <path d="M21.4453 10.5037C21.3915 10.6161 21.7581 10.8458 21.8046 10.7798C25.4729 3.00577 32.069 0.0608652 32.5455 0.451889C32.8095 0.669397 31.5924 6.45167 24.6077 12.6787C24.5759 12.7056 24.7739 13.0258 24.813 12.994C32.0665 7.04065 33.5231 0.510543 32.8559 0.0828603C31.8637 -0.552554 25.3653 2.39968 21.4478 10.5037H21.4453Z" fill="#0E141B"/>
    
    <path d="M28.5617 2.03799C29.136 2.98378 29.2557 5.76006 28.9649 8.25528C28.9454 8.41658 29.3559 7.93024 29.3779 7.81538C29.7641 5.65986 29.6345 2.69296 28.8916 1.77894C28.8476 1.72517 28.5397 1.99889 28.5617 2.04044V2.03799Z" fill="#0E141B"/>
    
    <path d="M11.5669 11.066C9.74868 6.64738 6.20258 3.15994 4.23768 1.94043C3.8711 2.6125 3.07194 3.94198 3.8882 8.23348C4.99529 9.7658 7.45141 12.3221 9.02529 13.3143C10.5992 14.3115 11.9873 12.0924 11.5694 11.066H11.5669Z" fill="#FFE100"/>
    
    <path d="M0.251477 0.266144C-0.161542 0.671832 0.952877 3.9711 3.90022 8.26015C3.57763 6.60074 3.39433 3.12062 4.25703 1.95732C3.17927 1.16306 0.688936 -0.166426 0.251477 0.266144Z" fill="#0E141B"/>
    
    <path d="M11.5547 10.5037C11.6085 10.6161 11.2419 10.8458 11.1955 10.7798C7.52963 3.00577 0.931098 0.0608652 0.454537 0.451889C0.190596 0.669397 1.44187 6.437 8.42654 12.6616C8.45831 12.6909 8.22614 13.0258 8.18704 12.994C0.935986 7.04065 -0.523023 0.510543 0.144162 0.0828603C1.13639 -0.552554 7.63472 2.39968 11.5523 10.5037H11.5547Z" fill="#0E141B"/>
    
    <path d="M4.43791 2.03799C3.8636 2.98378 3.74385 5.76006 4.03467 8.25528C4.05422 8.41658 3.64365 7.93024 3.62165 7.81538C3.23551 5.65986 3.36504 2.69296 4.10799 1.77894C4.15198 1.72517 4.45991 1.99889 4.43547 2.04044L4.43791 2.03799Z" fill="#0E141B"/>
    
    <path d="M27.2689 18.6613C27.3373 16.2223 26.4062 14.2623 24.8079 12.7031C24.4388 12.3438 24.2873 12.5149 24.693 12.989C25.9687 14.4724 26.785 16.2614 26.7386 18.7028C26.6652 22.4371 22.8723 25.9001 16.4546 25.9001C10.0369 25.9001 6.46884 22.31 6.25133 18.6271C6.12425 16.4691 7.18735 14.36 8.25533 13.0868C8.83942 12.3902 8.53638 12.3316 8.01094 12.8546C6.86231 14.0032 5.63058 16.2589 5.65013 18.6075C5.68679 22.7328 9.83654 26.3425 16.4546 26.3425C23.4271 26.3425 27.154 22.7182 27.2689 18.6613Z" fill="#0E141B"/>
    
    <path d="M22.0685 10.7822C20.5166 9.73378 18.3318 9.35742 16.472 9.35742C14.6122 9.35742 12.3858 9.78755 10.8877 10.8164C10.4184 11.139 10.4722 11.3688 11.0636 11.0462C12.7866 10.1077 14.8615 9.86575 16.5746 9.86575C18.3758 9.86575 20.3358 10.1126 21.8877 10.9802C22.3691 11.249 22.6184 11.1537 22.071 10.7822H22.0685Z" fill="#0E141B"/>
    
    <path d="M16.1076 18.4095C16.11 18.3068 16.8041 18.3068 16.8065 18.4021C16.8114 18.5219 16.5793 18.6563 16.4571 18.6563C16.3349 18.6563 16.0978 18.5317 16.1051 18.4119L16.1076 18.4095Z" fill="#0E141B"/>
    
    <path d="M7.58353 18.4976C8.50732 18.1115 9.6975 19.0719 10.1398 20.179C10.6384 21.4254 10.3891 22.86 9.58508 23.1679C8.80548 23.4661 7.68373 22.6547 7.14851 21.269C6.74527 20.2206 6.81614 18.8178 7.58353 18.4952V18.4976Z" fill="#E60013"/>
    
    <path d="M25.7198 18.1726C26.4481 18.4463 26.5996 19.942 26.0351 21.2421C25.4461 22.5985 24.4026 23.5443 23.4959 23.1899C22.7114 22.882 22.4352 21.4205 23.0633 20.0813C23.8527 18.4072 24.9989 17.9013 25.7198 18.1726Z" fill="#E60013"/>
    
    <path d="M14.1748 20.3524C14.6489 20.279 15.0204 20.1764 15.5605 19.9833C15.9784 19.8318 16.5234 19.7292 17.0659 19.9149C17.606 20.1031 18.3661 20.301 18.8989 20.2668C18.7498 22.2782 17.5058 24.0378 16.5038 24.0378C15.5018 24.0378 14.2432 22.178 14.1748 20.3524Z" fill="#B60007"/>
    
    <path d="M14.6318 22.2489C15.0375 21.9605 15.91 21.7332 16.4843 21.7577C17.2566 21.7919 18.0264 21.9605 18.3832 22.2513C17.8944 23.3047 17.1491 24.0378 16.5039 24.0378C15.8587 24.0378 15.0962 23.2753 14.6318 22.2489Z" fill="#E60013"/>
    
    <path d="M18.1949 21.9849C17.1196 21.4252 15.8317 21.4252 14.8126 21.9873C14.5218 22.1486 14.5804 22.3783 14.8712 22.2439C15.8048 21.8187 17.1221 21.8236 18.1216 22.2586C18.4271 22.3906 18.498 22.1413 18.1949 21.9849Z" fill="#0E141B"/>
    
    <path d="M19.5608 19.7367C19.3482 20.008 19.1478 20.1009 18.6126 20.1009C18.2509 20.1009 17.1023 19.7001 16.4913 19.7001C15.9512 19.7001 14.7317 20.0838 14.3895 20.0838C13.9399 20.0838 13.6857 19.9347 13.4902 19.6683C13.3118 19.4288 13.1016 19.5657 13.2556 19.8174C13.5219 20.2548 13.9179 20.4943 14.392 20.4943C14.8319 20.4943 15.8779 20.1082 16.4937 20.1082C17.1096 20.1082 18.0872 20.509 18.6346 20.509C19.336 20.509 19.6219 20.2646 19.8003 19.8394C19.9738 19.4239 19.8199 19.4068 19.5633 19.7343L19.5608 19.7367Z" fill="#0E141B"/>
    
    <path d="M18.7104 20.3501C18.6249 21.9606 17.4738 23.8424 16.462 23.8497C15.5749 23.8571 14.3774 21.9166 14.3187 20.3965C14.3163 20.2938 14.0084 20.2938 14.0132 20.3965C14.0743 22.0241 15.2621 24.2261 16.462 24.2187C17.6742 24.2114 18.8668 22.1756 19.0184 20.3501C19.0257 20.2499 18.7153 20.2499 18.7104 20.3501Z" fill="#0E141B"/>
    
    <path d="M9.03261 16.5447C8.84443 16.9675 9.0155 17.0409 9.32343 16.6621C9.66314 16.2417 10.4281 15.9875 10.8997 15.9875C11.7527 15.9875 12.3588 16.4079 12.718 16.904C13.0162 17.3146 13.2117 17.2804 13.0284 16.8062C12.7473 16.0926 11.8553 15.5036 10.9193 15.4597C9.99551 15.4157 9.30633 15.9313 9.03261 16.5447Z" fill="#0E141B"/>
    
    <path d="M23.8696 16.5447C24.0578 16.9675 23.8867 17.0409 23.5788 16.6621C23.239 16.2417 22.4741 15.9875 22.0024 15.9875C21.1495 15.9875 20.5434 16.4079 20.1842 16.904C19.886 17.3146 19.6905 17.2804 19.8738 16.8062C20.1548 16.0926 21.0469 15.5036 21.9829 15.4597C22.9067 15.4157 23.5959 15.9313 23.8696 16.5447Z" fill="#0E141B"/>
    
  </g>
  
  <defs>
    
    <clipPath id="clip0_241_16912">
      
      <rect fill="white" height="26.3428" width="33"/>
      
    </clipPath>
    
  </defs>
  
</svg>
