<svg xmlns="http://www.w3.org/2000/svg" xml:space="preserve" id="741E10389-star-5" x="0" y="0" viewBox="0 0 17.51 14.18" height="18" data-testid="empty-pikachu"><style>.review-empty-pikachu_svg__st1{fill:#7c888f}</style><path d="M17.51.71c-.02-.28-.12-.47-.3-.59-.23-.15-.54-.16-.96-.04-1.08.3-3.5 1.73-5.23 4.99-.86-.34-1.77-.39-2.28-.39-.5 0-1.38.05-2.25.39C4.77 1.81 2.34.38 1.26.08.84-.04.53-.03.3.12.12.23.02.43 0 .71c-.05.89.84 3.64 3.81 6.27-.54.71-.99 1.75-.98 2.83.02 2.17 2.05 4.37 5.9 4.37 3.98 0 5.86-2.25 5.91-4.33.03-1.07-.28-2.03-.94-2.86 2.97-2.63 3.86-5.39 3.81-6.28zm-4.88 6.58c.71.72 1.04 1.55 1.01 2.53-.04 1.67-1.58 3.36-4.91 3.36-3.2 0-4.89-1.7-4.9-3.38-.01-1.01.53-2.01 1.03-2.52l.39-.39-.42-.35c-2.72-2.26-3.67-4.62-3.81-5.5.88.26 3.25 1.72 4.8 4.9l.22.46.46-.24c1.18-.62 3.37-.6 4.52 0l.45.24.23-.46c1.54-3.18 3.91-4.64 4.79-4.9-.14.88-1.09 3.24-3.82 5.51l-.42.35.38.39z" style="fill: rgb(253, 183, 29);"></path></svg>