<svg xmlns="http://www.w3.org/2000/svg" xml:space="preserve" id="702-00528-star-5" x="0" y="0" viewBox="0 0 17.12 13.79" height="18" data-testid="full-pikachu"><style>.review-full-pikachu_svg__st1{fill:#7c888f}</style><path d="M16.91.09c-.18-.11-.44-.12-.8-.02-1.24.35-3.61 1.98-5.19 5.05-.88-.38-1.84-.44-2.37-.44-.84 0-1.68.16-2.34.44C4.63 2.05 2.26.42 1.02.07.66-.03.4-.03.22.09.09.17.02.32 0 .53c-.05.87.86 3.62 3.88 6.23-.56.68-1.06 1.75-1.05 2.86.02 2.07 1.99 4.17 5.71 4.17 3.87 0 5.66-2.08 5.72-4.14.03-1.09-.31-2.05-1.02-2.88 3.03-2.62 3.94-5.37 3.88-6.24-.02-.21-.09-.36-.21-.44z" style="fill: rgb(253, 183, 29);"></path></svg>